<mxfile host="app.diagrams.net" modified="2023-08-30T16:34:49.101Z" agent="Mozilla/5.0 (Macintosh; Intel Mac OS X 10_15_7) AppleWebKit/537.36 (KHTML, like Gecko) Chrome/116.0.0.0 Safari/537.36" etag="_qxvyCy8CHuAbBR5k-V2" version="21.7.1" type="device">
  <diagram name="Page-1" id="a1BMHLnDWniSm4NlTvLM">
    <mxGraphModel dx="742" dy="492" grid="1" gridSize="10" guides="1" tooltips="1" connect="1" arrows="1" fold="1" page="1" pageScale="1" pageWidth="827" pageHeight="1169" math="0" shadow="0">
      <root>
        <mxCell id="0" />
        <mxCell id="1" parent="0" />
        <mxCell id="xllPUtyajYtSeEHEdcZV-20" style="edgeStyle=orthogonalEdgeStyle;rounded=0;orthogonalLoop=1;jettySize=auto;html=1;entryX=0.5;entryY=0;entryDx=0;entryDy=0;" parent="1" source="xllPUtyajYtSeEHEdcZV-1" target="xllPUtyajYtSeEHEdcZV-3" edge="1">
          <mxGeometry relative="1" as="geometry" />
        </mxCell>
        <mxCell id="xllPUtyajYtSeEHEdcZV-1" value="Start" style="ellipse;whiteSpace=wrap;html=1;" parent="1" vertex="1">
          <mxGeometry x="400" y="30" width="74" height="40" as="geometry" />
        </mxCell>
        <mxCell id="xllPUtyajYtSeEHEdcZV-19" style="edgeStyle=orthogonalEdgeStyle;rounded=0;orthogonalLoop=1;jettySize=auto;html=1;entryX=0.5;entryY=0;entryDx=0;entryDy=0;" parent="1" source="xllPUtyajYtSeEHEdcZV-3" target="xllPUtyajYtSeEHEdcZV-4" edge="1">
          <mxGeometry relative="1" as="geometry" />
        </mxCell>
        <mxCell id="xllPUtyajYtSeEHEdcZV-3" value="Display&lt;br&gt;Enter the Quantity" style="shape=parallelogram;perimeter=parallelogramPerimeter;whiteSpace=wrap;html=1;fixedSize=1;" parent="1" vertex="1">
          <mxGeometry x="355.5" y="120" width="163" height="60" as="geometry" />
        </mxCell>
        <mxCell id="xllPUtyajYtSeEHEdcZV-18" style="edgeStyle=orthogonalEdgeStyle;rounded=0;orthogonalLoop=1;jettySize=auto;html=1;entryX=0.5;entryY=0;entryDx=0;entryDy=0;" parent="1" source="xllPUtyajYtSeEHEdcZV-4" target="xllPUtyajYtSeEHEdcZV-5" edge="1">
          <mxGeometry relative="1" as="geometry" />
        </mxCell>
        <mxCell id="xllPUtyajYtSeEHEdcZV-4" value="Read&lt;br&gt;Quantity from User" style="rounded=0;whiteSpace=wrap;html=1;" parent="1" vertex="1">
          <mxGeometry x="355.5" y="230" width="164.5" height="60" as="geometry" />
        </mxCell>
        <mxCell id="xllPUtyajYtSeEHEdcZV-17" style="edgeStyle=orthogonalEdgeStyle;rounded=0;orthogonalLoop=1;jettySize=auto;html=1;entryX=0.5;entryY=0;entryDx=0;entryDy=0;" parent="1" source="xllPUtyajYtSeEHEdcZV-5" target="xllPUtyajYtSeEHEdcZV-6" edge="1">
          <mxGeometry relative="1" as="geometry" />
        </mxCell>
        <mxCell id="xllPUtyajYtSeEHEdcZV-5" value="Display&lt;br&gt;Enter price per item" style="shape=parallelogram;perimeter=parallelogramPerimeter;whiteSpace=wrap;html=1;fixedSize=1;" parent="1" vertex="1">
          <mxGeometry x="355.5" y="340" width="163" height="60" as="geometry" />
        </mxCell>
        <mxCell id="xllPUtyajYtSeEHEdcZV-16" style="edgeStyle=orthogonalEdgeStyle;rounded=0;orthogonalLoop=1;jettySize=auto;html=1;entryX=0.5;entryY=0;entryDx=0;entryDy=0;" parent="1" source="xllPUtyajYtSeEHEdcZV-6" target="xllPUtyajYtSeEHEdcZV-7" edge="1">
          <mxGeometry relative="1" as="geometry" />
        </mxCell>
        <mxCell id="xllPUtyajYtSeEHEdcZV-6" value="Read&lt;br&gt;price per item from user" style="rounded=0;whiteSpace=wrap;html=1;" parent="1" vertex="1">
          <mxGeometry x="354" y="450" width="164.5" height="60" as="geometry" />
        </mxCell>
        <mxCell id="xllPUtyajYtSeEHEdcZV-15" style="edgeStyle=orthogonalEdgeStyle;rounded=0;orthogonalLoop=1;jettySize=auto;html=1;entryX=0.5;entryY=0;entryDx=0;entryDy=0;" parent="1" source="xllPUtyajYtSeEHEdcZV-7" target="xllPUtyajYtSeEHEdcZV-8" edge="1">
          <mxGeometry relative="1" as="geometry" />
        </mxCell>
        <mxCell id="xllPUtyajYtSeEHEdcZV-7" value="Calculate&lt;br&gt;totalExpenses = quantity * pricePerItem" style="shape=process;whiteSpace=wrap;html=1;backgroundOutline=1;" parent="1" vertex="1">
          <mxGeometry x="354" y="585" width="166" height="60" as="geometry" />
        </mxCell>
        <mxCell id="xllPUtyajYtSeEHEdcZV-11" style="edgeStyle=orthogonalEdgeStyle;rounded=0;orthogonalLoop=1;jettySize=auto;html=1;entryX=0.5;entryY=0;entryDx=0;entryDy=0;" parent="1" source="xllPUtyajYtSeEHEdcZV-8" target="xllPUtyajYtSeEHEdcZV-10" edge="1">
          <mxGeometry relative="1" as="geometry" />
        </mxCell>
        <mxCell id="xllPUtyajYtSeEHEdcZV-12" style="edgeStyle=orthogonalEdgeStyle;rounded=0;orthogonalLoop=1;jettySize=auto;html=1;entryX=-0.03;entryY=0.5;entryDx=0;entryDy=0;entryPerimeter=0;" parent="1" source="xllPUtyajYtSeEHEdcZV-8" target="xllPUtyajYtSeEHEdcZV-9" edge="1">
          <mxGeometry relative="1" as="geometry" />
        </mxCell>
        <mxCell id="xllPUtyajYtSeEHEdcZV-8" value="If&lt;br&gt;Quantity &amp;gt; 1000" style="rhombus;whiteSpace=wrap;html=1;" parent="1" vertex="1">
          <mxGeometry x="355.5" y="720" width="164.5" height="80" as="geometry" />
        </mxCell>
        <mxCell id="xllPUtyajYtSeEHEdcZV-14" style="edgeStyle=orthogonalEdgeStyle;rounded=0;orthogonalLoop=1;jettySize=auto;html=1;entryX=0.5;entryY=1;entryDx=0;entryDy=0;" parent="1" source="xllPUtyajYtSeEHEdcZV-9" target="xllPUtyajYtSeEHEdcZV-10" edge="1">
          <mxGeometry relative="1" as="geometry">
            <Array as="points">
              <mxPoint x="680" y="960" />
              <mxPoint x="438" y="960" />
            </Array>
          </mxGeometry>
        </mxCell>
        <mxCell id="xllPUtyajYtSeEHEdcZV-9" value="Calculate&lt;br&gt;totalExpenses = quantity * pricePerItem" style="shape=process;whiteSpace=wrap;html=1;backgroundOutline=1;" parent="1" vertex="1">
          <mxGeometry x="590" y="730" width="166" height="60" as="geometry" />
        </mxCell>
        <mxCell id="xllPUtyajYtSeEHEdcZV-22" style="edgeStyle=orthogonalEdgeStyle;rounded=0;orthogonalLoop=1;jettySize=auto;html=1;entryX=1;entryY=0.5;entryDx=0;entryDy=0;" parent="1" source="xllPUtyajYtSeEHEdcZV-10" target="xllPUtyajYtSeEHEdcZV-21" edge="1">
          <mxGeometry relative="1" as="geometry">
            <mxPoint x="260" y="910" as="targetPoint" />
          </mxGeometry>
        </mxCell>
        <mxCell id="xllPUtyajYtSeEHEdcZV-10" value="Display&lt;br&gt;Total Expenses" style="shape=parallelogram;perimeter=parallelogramPerimeter;whiteSpace=wrap;html=1;fixedSize=1;" parent="1" vertex="1">
          <mxGeometry x="356.25" y="880" width="163" height="60" as="geometry" />
        </mxCell>
        <mxCell id="xllPUtyajYtSeEHEdcZV-21" value="Stop" style="ellipse;whiteSpace=wrap;html=1;" parent="1" vertex="1">
          <mxGeometry x="220" y="890" width="74" height="40" as="geometry" />
        </mxCell>
        <mxCell id="iyfwvuvb4bnzu4P1ksLo-1" value="Yes" style="text;html=1;align=center;verticalAlign=middle;resizable=0;points=[];autosize=1;strokeColor=none;fillColor=none;" parent="1" vertex="1">
          <mxGeometry x="530" y="738" width="40" height="30" as="geometry" />
        </mxCell>
        <mxCell id="vIXrNotXcrjJovhWvCEY-1" value="No" style="text;html=1;align=center;verticalAlign=middle;resizable=0;points=[];autosize=1;strokeColor=none;fillColor=none;" vertex="1" parent="1">
          <mxGeometry x="400" y="818" width="40" height="30" as="geometry" />
        </mxCell>
      </root>
    </mxGraphModel>
  </diagram>
</mxfile>
